<svg width="96.000000" height="80.000000" viewBox="0 0 96 80" fill="none" xmlns="http://www.w3.org/2000/svg" xmlns:xlink="http://www.w3.org/1999/xlink">
	<desc>
			Created with Pixso.
	</desc>
	<defs/>
	<rect id="Frame 59" width="96.000000" height="80.000000" fill="#FFFFFF" fill-opacity="0"/>
	<path id="path" d="M72 16C70.12 16 68.32 16.28 66.62 16.79C66.63 16.52 66.66 16.26 66.66 16C66.66 7.16 59.5 0 50.66 0C43.28 0 37.08 5 35.23 11.8C33.41 11.07 31.42 10.66 29.33 10.66C20.49 10.66 13.33 17.82 13.33 26.66C13.33 35.49 20.49 42.66 29.33 42.66C36.71 42.66 42.91 37.65 44.75 30.85C46.58 31.58 48.57 32 50.66 32C51.66 32 52.63 31.89 53.58 31.72C53.43 32.68 53.33 33.66 53.33 34.66C53.33 44.97 61.69 53.33 72 53.33C82.3 53.33 90.66 44.97 90.66 34.66C90.66 24.35 82.3 16 72 16Z" fill="#CCD6DD" fill-opacity="1.000000" fill-rule="nonzero"/>
	<path id="path" d="M82.66 53.33C81.42 53.33 80.24 53.56 79.09 53.87C79.67 52.47 80 50.94 80 49.33C80 42.7 74.62 37.33 68 37.33C65.28 37.33 62.8 38.26 60.79 39.78C58.91 32.25 52.11 26.66 44 26.66C36.43 26.66 30.01 31.52 27.65 38.28C25.65 37.66 23.53 37.33 21.33 37.33C9.55 37.33 0 46.88 0 58.66C0 70.45 9.55 80 21.33 80L82.66 80C90.03 80 96 74.03 96 66.66C96 59.3 90.03 53.33 82.66 53.33Z" fill="#E1E8ED" fill-opacity="1.000000" fill-rule="nonzero"/>
</svg>
