<svg width="24.000000" height="24.000000" viewBox="0 0 24 24" fill="none" xmlns="http://www.w3.org/2000/svg" xmlns:xlink="http://www.w3.org/1999/xlink">
	<desc>
			Created with Pixso.
	</desc>
	<defs>
		<clipPath id="clip265_39">
			<rect id="humidity" width="24.000000" height="24.000000" fill="white" fill-opacity="0"/>
		</clipPath>
	</defs>
	<g clip-path="url(#clip265_39)">
		<path id="path" d="M15 3.25C16.84 2.85 19.13 2.87 22.24 3.65C22.77 3.78 23.1 4.32 22.96 4.86C22.83 5.39 22.29 5.72 21.75 5.58C18.86 4.86 16.9 4.88 15.43 5.2C13.95 5.52 12.89 6.15 11.77 6.84C10.68 7.5 9.4 8.28 7.82 8.55C6.17 8.82 4.23 8.58 1.62 7.54C1.11 7.33 0.86 6.75 1.07 6.24C1.27 5.73 1.85 5.48 2.37 5.68C4.76 6.64 6.32 6.77 7.49 6.58C8.67 6.38 9.58 5.83 10.72 5.14C11.85 4.45 13.16 3.65 15 3.25Z" fill="#FFFFFF" fill-opacity="0.500000" fill-rule="nonzero"/>
		<path id="path" d="M22.24 7.64C19.13 6.86 16.84 6.84 15 7.24C13.16 7.64 11.85 8.44 10.72 9.13C9.58 9.82 8.67 10.37 7.49 10.57C6.32 10.76 4.76 10.63 2.37 9.67C1.85 9.47 1.27 9.72 1.07 10.23C0.86 10.74 1.11 11.32 1.62 11.53C4.23 12.57 6.17 12.81 7.82 12.54C9.4 12.27 10.6 11.54 11.68 10.88C12.81 10.2 13.95 9.51 15.43 9.19C16.9 8.87 18.86 8.85 21.75 9.57C22.29 9.71 22.83 9.38 22.96 8.85C23.1 8.31 22.77 7.77 22.24 7.64Z" fill="#FFFFFF" fill-opacity="0.500000" fill-rule="nonzero"/>
		<path id="path" d="M19 10.02C18.65 10.02 18.36 10.2 18.16 10.47C18.09 10.57 17.92 10.79 17.7 11.11C17.41 11.52 17.03 12.1 16.64 12.75C16.25 13.39 15.85 14.12 15.54 14.83C15.25 15.52 14.99 16.26 15 17.01C15 17.22 15.02 17.43 15.06 17.64C15.11 17.98 15.23 18.46 15.48 18.95C15.72 19.44 16.11 19.96 16.71 20.36C17.31 20.76 18.07 21 19 21C19.92 21 20.68 20.76 21.28 20.36C21.88 19.96 22.27 19.44 22.51 18.95C22.76 18.46 22.88 17.98 22.93 17.64C22.97 17.43 23 17.22 23 17.01C23 16.26 22.74 15.52 22.45 14.83C22.14 14.12 21.74 13.39 21.35 12.75C20.96 12.1 20.58 11.52 20.29 11.11C20.07 10.79 19.9 10.57 19.83 10.47C19.63 10.2 19.34 10.02 19 10.02ZM20.61 15.62C20.35 15.02 20 14.38 19.64 13.78C19.42 13.41 19.2 13.07 19 12.76C18.79 13.07 18.57 13.41 18.35 13.78C17.99 14.38 17.64 15.02 17.38 15.62C17.21 16.03 16.98 16.55 17 17.01C17.01 17.36 17.1 17.73 17.26 18.05C17.39 18.31 17.57 18.54 17.82 18.7C18.06 18.86 18.42 19 19 19C19.57 19 19.93 18.86 20.17 18.7C20.42 18.54 20.6 18.31 20.73 18.05C20.89 17.73 20.98 17.36 21 17.01C21.01 16.55 20.78 16.03 20.61 15.62Z" fill="#FFFFFF" fill-opacity="0.500000" fill-rule="evenodd"/>
		<path id="path" d="M14.12 11.53C14.88 11.28 15.47 12.07 15.11 12.78C14.95 13.11 14.76 13.39 14.4 13.52C13.42 13.86 12.61 14.35 11.77 14.86C10.68 15.52 9.4 16.31 7.82 16.57C6.17 16.84 4.23 16.6 1.62 15.56C1.11 15.36 0.86 14.78 1.07 14.26C1.27 13.75 1.85 13.5 2.37 13.71C4.76 14.66 6.32 14.8 7.49 14.6C8.67 14.4 9.58 13.86 10.72 13.16C11.81 12.5 12.93 11.91 14.12 11.53Z" fill="#FFFFFF" fill-opacity="0.500000" fill-rule="nonzero"/>
	</g>
</svg>
