<svg width="14.000000" height="14.000000" viewBox="0 0 14 14" fill="none" xmlns="http://www.w3.org/2000/svg" xmlns:xlink="http://www.w3.org/1999/xlink">
	<desc>
			Created with Pixso.
	</desc>
	<defs>
		<clipPath id="clip265_31">
			<rect id="pressure" width="14.000000" height="14.000000" fill="white" fill-opacity="0"/>
		</clipPath>
	</defs>
	<g clip-path="url(#clip265_31)">
		<path id="path" d="M7 5.25C6.67 5.25 6.41 5.51 6.41 5.83L6.41 8.9C6.06 9.1 5.83 9.48 5.83 9.91C5.83 10.56 6.35 11.08 7 11.08C7.64 11.08 8.16 10.56 8.16 9.91C8.16 9.48 7.93 9.1 7.58 8.9L7.58 5.83C7.58 5.51 7.32 5.25 7 5.25Z" fill="#FFFFFF" fill-opacity="0.500000" fill-rule="nonzero"/>
		<path id="path" d="M6.41 3.49C6.41 3.17 6.67 2.91 7 2.91C7.32 2.91 7.58 3.17 7.58 3.49C7.58 3.82 7.32 4.08 7 4.08C6.67 4.08 6.41 3.82 6.41 3.49Z" fill="#FFFFFF" fill-opacity="0.500000" fill-rule="nonzero"/>
		<path id="path" d="M9.33 4.08C9.01 4.08 8.75 4.34 8.75 4.66C8.75 4.98 9.01 5.25 9.33 5.25C9.65 5.25 9.91 4.98 9.91 4.66C9.91 4.34 9.65 4.08 9.33 4.08Z" fill="#FFFFFF" fill-opacity="0.500000" fill-rule="nonzero"/>
		<path id="path" d="M3.5 7.58C3.17 7.58 2.91 7.32 2.91 6.99C2.91 6.67 3.17 6.41 3.5 6.41C3.82 6.41 4.08 6.67 4.08 6.99C4.08 7.32 3.82 7.58 3.5 7.58Z" fill="#FFFFFF" fill-opacity="0.500000" fill-rule="nonzero"/>
		<path id="path" d="M4.08 4.66C4.08 4.98 4.34 5.25 4.66 5.25C4.98 5.25 5.25 4.98 5.25 4.66C5.25 4.34 4.98 4.08 4.66 4.08C4.34 4.08 4.08 4.34 4.08 4.66Z" fill="#FFFFFF" fill-opacity="0.500000" fill-rule="nonzero"/>
		<path id="path" d="M10.5 7.58C10.17 7.58 9.91 7.32 9.91 6.99C9.91 6.67 10.17 6.41 10.5 6.41C10.82 6.41 11.08 6.67 11.08 6.99C11.08 7.32 10.82 7.58 10.5 7.58Z" fill="#FFFFFF" fill-opacity="0.500000" fill-rule="nonzero"/>
		<path id="path" d="M7 13.41C10.54 13.41 13.41 10.54 13.41 7C13.41 3.45 10.54 0.58 7 0.58C3.45 0.58 0.58 3.45 0.58 7C0.58 10.54 3.45 13.41 7 13.41ZM7 12.24C4.1 12.24 1.75 9.89 1.75 7C1.75 4.1 4.1 1.75 7 1.75C9.89 1.75 12.24 4.1 12.24 7C12.24 9.89 9.89 12.24 7 12.24Z" fill="#FFFFFF" fill-opacity="0.500000" fill-rule="evenodd"/>
	</g>
</svg>
