<svg width="14.000000" height="14.000000" viewBox="0 0 14 14" fill="none" xmlns="http://www.w3.org/2000/svg" xmlns:xlink="http://www.w3.org/1999/xlink">
	<desc>
			Created with Pixso.
	</desc>
	<defs>
		<clipPath id="clip256_110">
			<rect id="search" width="14.000000" height="14.000000" fill="white" fill-opacity="0"/>
		</clipPath>
	</defs>
	<g clip-path="url(#clip256_110)">
		<path id="path" d="M9.91 5.83C9.91 6.36 9.81 6.9 9.6 7.39C9.4 7.89 9.12 8.37 8.75 8.75C8.37 9.12 7.89 9.4 7.39 9.6C6.9 9.81 6.36 9.91 5.83 9.91C5.29 9.91 4.76 9.81 4.27 9.6C3.77 9.4 3.32 9.09 2.94 8.72C2.56 8.34 2.26 7.89 2.06 7.39C1.85 6.9 1.75 6.36 1.75 5.83C1.75 4.75 2.18 3.71 2.94 2.94C3.71 2.18 4.75 1.75 5.83 1.75C6.91 1.75 7.95 2.18 8.72 2.94C9.48 3.71 9.91 4.75 9.91 5.83ZM12.57 11.89L12.6 11.89C12.8 12.09 12.8 12.4 12.6 12.6C12.4 12.8 12.09 12.8 11.89 12.6L11.89 12.57L12.57 11.89Z" fill="#000000" fill-opacity="0" fill-rule="nonzero"/>
		<path id="path" d="M12.25 12.25L8.75 8.75M9.6 7.39C9.4 7.89 9.12 8.37 8.75 8.75C8.37 9.12 7.89 9.4 7.39 9.6C6.9 9.81 6.36 9.91 5.83 9.91C5.29 9.91 4.76 9.81 4.27 9.6C3.77 9.4 3.32 9.09 2.94 8.72C2.56 8.34 2.26 7.89 2.06 7.39C1.85 6.9 1.75 6.36 1.75 5.83C1.75 4.75 2.18 3.71 2.94 2.94C3.71 2.18 4.75 1.75 5.83 1.75C6.91 1.75 7.95 2.18 8.72 2.94C9.48 3.71 9.91 4.75 9.91 5.83C9.91 6.36 9.81 6.9 9.6 7.39Z" stroke="#FFFFFF" stroke-opacity="1.000000" stroke-width="1.000000" stroke-linejoin="round"/>
	</g>
</svg>
