<svg width="12.000000" height="12.000000" viewBox="0 0 12 12" fill="none" xmlns="http://www.w3.org/2000/svg" xmlns:xlink="http://www.w3.org/1999/xlink">
	<desc>
			Created with Pixso.
	</desc>
	<defs/>
	<path id="path" d="M2.58 7.25C2.58 6.86 2.65 6.49 2.8 6.13C2.95 5.77 3.16 5.46 3.43 5.18C3.71 4.91 4.02 4.7 4.38 4.55C4.74 4.4 5.11 4.33 5.5 4.33C5.88 4.33 6.25 4.4 6.61 4.55C6.97 4.7 7.28 4.91 7.56 5.18C7.83 5.46 8.04 5.77 8.19 6.13C8.34 6.49 8.41 6.86 8.41 7.25C8.41 7.63 8.22 7.83 7.83 7.83C7.44 7.83 7.25 7.63 7.25 7.25C7.25 6.76 7.07 6.35 6.73 6.01C6.39 5.67 5.98 5.5 5.5 5.5C5.01 5.5 4.6 5.67 4.26 6.01C3.92 6.35 3.75 6.76 3.75 7.25C3.75 7.63 3.55 7.83 3.16 7.83C2.77 7.83 2.58 7.63 2.58 7.25ZM8.58 3.33L8.17 3.75C8.05 3.86 7.99 4 7.99 4.16C7.99 4.32 8.05 4.46 8.16 4.58C8.28 4.69 8.42 4.75 8.58 4.75C8.74 4.75 8.88 4.69 9 4.57L9.41 4.16C9.67 3.88 9.67 3.61 9.4 3.34C9.13 3.07 8.86 3.07 8.58 3.33ZM11.33 7.25C11.33 6.86 11.13 6.66 10.75 6.66L10.16 6.66C9.77 6.66 9.58 6.86 9.58 7.25C9.58 7.63 9.77 7.83 10.16 7.83L10.75 7.83C11.13 7.83 11.33 7.63 11.33 7.25ZM0.83 6.66L0.25 6.66C-0.14 6.66 -0.34 6.86 -0.34 7.25C-0.34 7.63 -0.14 7.83 0.25 7.83L0.83 7.83C1.22 7.83 1.41 7.63 1.41 7.25C1.41 6.86 1.22 6.66 0.83 6.66ZM2.41 3.33C2.13 3.07 1.86 3.07 1.59 3.34C1.32 3.61 1.32 3.88 1.58 4.16L2 4.57C2.11 4.69 2.25 4.75 2.41 4.75C2.57 4.75 2.71 4.69 2.83 4.58C2.94 4.46 3 4.32 3 4.16C3 4 2.94 3.86 2.82 3.75L2.41 3.33ZM0.83 9C0.83 9.38 1.02 9.58 1.41 9.58L9.58 9.58C9.97 9.58 10.16 9.38 10.16 9C10.16 8.61 9.97 8.41 9.58 8.41L1.41 8.41C1.02 8.41 0.83 8.61 0.83 9ZM8.41 11.33C8.41 10.94 8.22 10.75 7.83 10.75L3.16 10.75C2.77 10.75 2.58 10.94 2.58 11.33C2.58 11.72 2.77 11.91 3.16 11.91L7.83 11.91C8.22 11.91 8.41 11.72 8.41 11.33ZM5.5 -0.92C5.11 -0.92 4.91 -0.73 4.91 -0.34L4.91 1.75L4.16 1C3.88 0.73 3.61 0.74 3.34 1.01C3.07 1.28 3.07 1.55 3.33 1.82L5.08 3.57C5.36 3.85 5.63 3.85 5.91 3.57L7.66 1.82C7.78 1.71 7.83 1.57 7.84 1.41C7.84 1.25 7.78 1.11 7.66 0.99C7.55 0.88 7.41 0.82 7.25 0.82C7.08 0.82 6.95 0.88 6.83 1L6.08 1.75L6.08 -0.34C6.08 -0.73 5.88 -0.92 5.5 -0.92Z" fill="#FFFFFF" fill-opacity="0.500000" fill-rule="nonzero"/>
</svg>
