<svg width="11.000000" height="11.000000" viewBox="0 0 11 11" fill="none" xmlns="http://www.w3.org/2000/svg" xmlns:xlink="http://www.w3.org/1999/xlink">
	<desc>
			Created with Pixso.
	</desc>
	<defs/>
	<path id="path" d="M7.47 2.15L7.48 2.18C7.3 2.4 6.99 2.44 6.77 2.26C6.56 2.09 6.52 1.78 6.7 1.56L6.72 1.56L7.47 2.15ZM0.01 5.47L0 5.5C-0.29 5.5 -0.5 5.28 -0.5 5C-0.5 4.71 -0.29 4.5 0 4.5L0.01 4.52L0.01 5.47ZM3.44 0.69L3.45 0.72C3.27 0.94 2.96 0.98 2.74 0.8C2.53 0.63 2.49 0.32 2.66 0.1L2.69 0.1L3.44 0.69ZM0.01 2.97L0 3C-0.29 3 -0.5 2.78 -0.5 2.5C-0.5 2.21 -0.29 2 0 2L0.01 2.02L0.01 2.97ZM4.36 9.89L4.33 9.89C4.16 9.67 4.19 9.36 4.41 9.19C4.63 9.01 4.94 9.05 5.11 9.27L5.11 9.3L4.36 9.89ZM0.01 7.97L0 8C-0.29 8 -0.5 7.78 -0.5 7.5C-0.5 7.21 -0.29 7 0 7L0.01 7.02L0.01 7.97Z" fill="#000000" fill-opacity="0" fill-rule="nonzero"/>
	<path id="path" d="M7.09 1.87C7.39 1.49 7.83 1.25 8.33 1.25C9.25 1.25 10 2.08 10 3.12C10 4.16 9.25 5 8.33 5L0 5M3.06 0.41C3.26 0.16 3.55 0 3.88 0C4.5 0 5 0.55 5 1.25C5 1.94 4.5 2.5 3.88 2.5L0 2.5M4.72 9.58C4.93 9.83 5.22 10 5.55 10C6.16 10 6.66 9.44 6.66 8.75C6.66 8.05 6.16 7.5 5.55 7.5L0 7.5" stroke="#FFFFFF" stroke-opacity="0.500000" stroke-width="1.000000" stroke-linejoin="round"/>
</svg>
