<svg width="46.000000" height="58.000000" viewBox="0 0 46 58" fill="none" xmlns="http://www.w3.org/2000/svg" xmlns:xlink="http://www.w3.org/1999/xlink">
	<desc>
			Created with Pixso.
	</desc>
	<defs/>
	<path id="Ю" d="M18.48 46.27L19.54 46.27L19.54 50.24L21.16 50.24C21.3 47.71 22.87 46.15 24.99 46.15C27.23 46.15 28.85 47.87 28.85 50.63C28.85 53.39 27.23 55.12 24.99 55.12C22.91 55.12 21.36 53.62 21.17 51.18L19.54 51.18L19.54 55L18.48 55L18.48 46.27ZM24.99 54.12C26.58 54.12 27.82 52.9 27.82 50.63C27.82 48.37 26.58 47.14 24.99 47.14C23.41 47.14 22.16 48.37 22.16 50.63C22.16 52.9 23.41 54.12 24.99 54.12Z" fill="#FFFFFF" fill-opacity="1.000000" fill-rule="evenodd"/>
	<circle id="Oval 3" cx="23.000000" cy="28.000000" r="14.500000" stroke="#FFFFFF" stroke-opacity="0.500000" stroke-width="1.000000" stroke-dasharray="2 2"/>
	<path id="С" d="M23.2 3.15C24.96 3.15 26.39 4.2 26.71 6L25.65 6C25.4 4.79 24.36 4.14 23.2 4.14C21.61 4.14 20.37 5.37 20.37 7.63C20.37 9.9 21.61 11.12 23.2 11.12C24.36 11.12 25.4 10.48 25.65 9.27L26.71 9.27C26.39 11.06 24.96 12.12 23.2 12.12C20.97 12.12 19.35 10.39 19.35 7.63C19.35 4.87 20.97 3.15 23.2 3.15Z" fill="#FFFFFF" fill-opacity="1.000000" fill-rule="evenodd"/>
	<path id="З" d="M6.98 29.62C6.98 31.05 5.72 32.12 4.03 32.12C2.34 32.12 1.13 31.19 1.06 29.81L2.14 29.81C2.2 30.66 3 31.18 4.01 31.18C5.13 31.18 5.94 30.55 5.94 29.62C5.94 28.66 5.2 27.99 3.88 27.99L3.18 27.99L3.18 27.05L3.88 27.05C4.91 27.05 5.63 26.46 5.63 25.54C5.63 24.65 5.01 24.07 4.05 24.07C3.14 24.07 2.31 24.58 2.27 25.45L1.25 25.45C1.3 24.08 2.56 23.15 4.06 23.15C5.68 23.15 6.65 24.25 6.65 25.48C6.65 26.47 6.1 27.19 5.22 27.46L5.22 27.53C6.32 27.71 6.98 28.52 6.98 29.62Z" fill="#FFFFFF" fill-opacity="1.000000" fill-rule="evenodd"/>
	<path id="В" d="M42.3 32L39.15 32L39.15 23.27L42.2 23.27C44.02 23.27 44.88 24.31 44.88 25.58C44.88 26.71 44.21 27.21 43.46 27.41L43.46 27.5C44.26 27.54 45.22 28.29 45.22 29.68C45.22 30.99 44.36 32 42.3 32ZM40.2 24.21L40.2 27.1L42.17 27.1C43.12 27.1 43.87 26.51 43.87 25.58C43.87 24.82 43.36 24.21 42.2 24.21L40.2 24.21ZM40.2 28.02L40.2 31.06L42.3 31.06C43.68 31.06 44.21 30.45 44.21 29.68C44.21 28.79 43.49 28.02 42.35 28.02L40.2 28.02Z" fill="#FFFFFF" fill-opacity="1.000000" fill-rule="evenodd"/>
	<path id="arrow-wind" d="M22 18.41L18.04 22.36C17.65 22.75 17.03 22.75 16.63 22.36C16.24 21.96 16.24 21.34 16.63 20.94L22.29 15.29C22.68 14.89 23.31 14.89 23.7 15.29L29.36 20.94C29.75 21.34 29.75 21.96 29.36 22.36C28.96 22.75 28.34 22.75 27.95 22.36L24 18.41L24 40L22 40L22 18.41Z" fill="#FFFFFF" fill-opacity="1.000000" fill-rule="evenodd"/>
</svg>
