<svg width="24.000000" height="24.000000" viewBox="0 0 24 24" fill="none" xmlns="http://www.w3.org/2000/svg" xmlns:xlink="http://www.w3.org/1999/xlink">
	<desc>
			Created with Pixso.
	</desc>
	<defs>
		<clipPath id="clip265_44">
			<rect id="eye-svgrepo-com" width="24.000000" height="24.000000" fill="white" fill-opacity="0"/>
		</clipPath>
	</defs>
	<g clip-path="url(#clip265_44)">
		<path id="path" d="M15 12C15 13.65 13.65 15 12 15C10.34 15 9 13.65 9 12C9 10.34 10.34 9 12 9C13.65 9 15 10.34 15 12Z" fill="#000000" fill-opacity="0" fill-rule="nonzero"/>
		<path id="path" d="M12 15C10.34 15 9 13.65 9 12C9 10.34 10.34 9 12 9C13.65 9 15 10.34 15 12C15 13.65 13.65 15 12 15Z" stroke="#FFFFFF" stroke-opacity="0.500000" stroke-width="2.000000" stroke-linejoin="round"/>
		<path id="path" d="M12 5C7.52 5 3.73 7.94 2.45 12C3.73 16.05 7.52 19 12 19C16.47 19 20.26 16.05 21.54 12C20.26 7.94 16.47 5 12 5Z" fill="#000000" fill-opacity="0" fill-rule="nonzero"/>
		<path id="path" d="M2.45 12C3.73 16.05 7.52 19 12 19C16.47 19 20.26 16.05 21.54 12C20.26 7.94 16.47 5 12 5C7.52 5 3.73 7.94 2.45 12Z" stroke="#FFFFFF" stroke-opacity="0.500000" stroke-width="2.000000" stroke-linejoin="round"/>
	</g>
</svg>
