<svg width="14.000000" height="14.000000" viewBox="0 0 14 14" fill="none" xmlns="http://www.w3.org/2000/svg" xmlns:xlink="http://www.w3.org/1999/xlink">
	<desc>
			Created with Pixso.
	</desc>
	<defs>
		<clipPath id="clip265_27">
			<rect id="sunrise-up-svgrepo-com" width="14.000000" height="14.000000" transform="translate(-0.500000 -0.500000)" fill="white" fill-opacity="0"/>
		</clipPath>
	</defs>
	<g clip-path="url(#clip265_27)">
		<path id="path" d="M3.58 8.25C3.58 7.86 3.65 7.49 3.8 7.13C3.95 6.77 4.16 6.46 4.43 6.18C4.71 5.91 5.02 5.7 5.38 5.55C5.74 5.4 6.11 5.33 6.5 5.33C6.88 5.33 7.25 5.4 7.61 5.55C7.97 5.7 8.28 5.91 8.56 6.18C8.83 6.46 9.04 6.77 9.19 7.13C9.34 7.49 9.41 7.86 9.41 8.25C9.41 8.63 9.22 8.83 8.83 8.83C8.44 8.83 8.25 8.63 8.25 8.25C8.25 7.76 8.07 7.35 7.73 7.01C7.39 6.67 6.98 6.5 6.5 6.5C6.01 6.5 5.6 6.67 5.26 7.01C4.92 7.35 4.75 7.76 4.75 8.25C4.75 8.63 4.55 8.83 4.16 8.83C3.77 8.83 3.58 8.63 3.58 8.25ZM10 5.57L10.41 5.16C10.67 4.88 10.67 4.61 10.4 4.34C10.13 4.07 9.86 4.07 9.58 4.33L9.17 4.75C9.05 4.86 8.99 5 8.99 5.16C8.99 5.32 9.05 5.46 9.16 5.58C9.28 5.69 9.42 5.75 9.58 5.75C9.74 5.75 9.88 5.69 10 5.57ZM11.16 8.83L11.75 8.83C12.13 8.83 12.33 8.63 12.33 8.25C12.33 7.86 12.13 7.66 11.75 7.66L11.16 7.66C10.77 7.66 10.58 7.86 10.58 8.25C10.58 8.63 10.77 8.83 11.16 8.83ZM1.83 7.66L1.25 7.66C0.86 7.66 0.66 7.86 0.66 8.25C0.66 8.63 0.86 8.83 1.25 8.83L1.83 8.83C2.22 8.83 2.41 8.63 2.41 8.25C2.41 7.86 2.22 7.66 1.83 7.66ZM2.58 5.16L3 5.57C3.11 5.69 3.25 5.75 3.41 5.75C3.57 5.75 3.71 5.69 3.83 5.58C3.94 5.46 4 5.32 4 5.16C4 5 3.94 4.86 3.82 4.75L3.41 4.33C3.13 4.07 2.86 4.07 2.59 4.34C2.32 4.61 2.32 4.88 2.58 5.16ZM1.83 10C1.83 10.38 2.02 10.58 2.41 10.58L10.58 10.58C10.97 10.58 11.16 10.38 11.16 10C11.16 9.61 10.97 9.41 10.58 9.41L2.41 9.41C2.02 9.41 1.83 9.61 1.83 10ZM4.16 11.75C3.77 11.75 3.58 11.94 3.58 12.33C3.58 12.72 3.77 12.91 4.16 12.91L8.83 12.91C9.22 12.91 9.41 12.72 9.41 12.33C9.41 11.94 9.22 11.75 8.83 11.75L4.16 11.75ZM6.5 4.75C6.88 4.75 7.08 4.55 7.08 4.16L7.08 2.07L7.83 2.82C8.11 3.09 8.38 3.09 8.65 2.82C8.92 2.55 8.92 2.27 8.66 2L6.91 0.25C6.63 -0.03 6.36 -0.03 6.08 0.25L4.33 2C4.06 2.27 4.06 2.55 4.33 2.82C4.61 3.1 4.88 3.1 5.16 2.82L5.91 2.07L5.91 4.16C5.91 4.55 6.11 4.75 6.5 4.75Z" fill="#FFFFFF" fill-opacity="0.500000" fill-rule="nonzero"/>
	</g>
</svg>
