<svg width="10.000000" height="11.000000" viewBox="0 0 10 11" fill="none" xmlns="http://www.w3.org/2000/svg" xmlns:xlink="http://www.w3.org/1999/xlink">
	<desc>
			Created with Pixso.
	</desc>
	<defs/>
	<path id="path" d="M2.75 7.22C2.43 7.22 2.18 7.47 2.18 7.77C2.18 8.08 2.43 8.33 2.75 8.33C3.06 8.33 3.31 8.08 3.31 7.77C3.31 7.47 3.06 7.22 2.75 7.22ZM5 7.77C5 9 3.99 10 2.75 10C1.5 10 0.5 9 0.5 7.77C0.5 7.21 0.71 6.69 1.06 6.3L1.06 1.66C1.06 0.74 1.81 0 2.75 0C3.68 0 4.43 0.74 4.43 1.66L4.43 6.3C4.78 6.69 5 7.21 5 7.77ZM6.51 1.47L6.5 1.5C6.21 1.5 6 1.28 6 1C6 0.71 6.21 0.5 6.5 0.5L6.51 0.52L6.51 1.47ZM9.48 0.52L9.5 0.5C9.78 0.5 10 0.71 10 1C10 1.28 9.78 1.5 9.5 1.5L9.48 1.47L9.48 0.52ZM6.51 3.47L6.5 3.5C6.21 3.5 6 3.28 6 3C6 2.71 6.21 2.5 6.5 2.5L6.51 2.52L6.51 3.47ZM9.48 2.52L9.5 2.5C9.78 2.5 10 2.71 10 3C10 3.28 9.78 3.5 9.5 3.5L9.48 3.47L9.48 2.52ZM6.51 5.47L6.5 5.5C6.21 5.5 6 5.28 6 5C6 4.71 6.21 4.5 6.5 4.5L6.51 4.52L6.51 5.47ZM7.98 4.52L8 4.5C8.28 4.5 8.5 4.71 8.5 5C8.5 5.28 8.28 5.5 8 5.5L7.98 5.47L7.98 4.52ZM2.26 3.35L2.25 3.33C2.25 3.05 2.46 2.83 2.75 2.83C3.03 2.83 3.25 3.05 3.25 3.33L3.23 3.35L2.26 3.35Z" fill="#000000" fill-opacity="0" fill-rule="nonzero"/>
	<path id="path" d="M6.5 1L9.5 1M6.5 3L9.5 3M6.5 5L8 5M2.18 7.77C2.18 8.08 2.43 8.33 2.75 8.33C3.06 8.33 3.31 8.08 3.31 7.77C3.31 7.47 3.06 7.22 2.75 7.22C2.43 7.22 2.18 7.47 2.18 7.77ZM2.75 7.22L2.75 3.33M2.75 10C1.5 10 0.5 9 0.5 7.77C0.5 7.21 0.71 6.69 1.06 6.3L1.06 1.66C1.06 0.74 1.81 0 2.75 0C3.68 0 4.43 0.74 4.43 1.66L4.43 6.3C4.78 6.69 5 7.21 5 7.77C5 9 3.99 10 2.75 10Z" stroke="#FFFFFF" stroke-opacity="0.500000" stroke-width="1.000000" stroke-linejoin="round"/>
</svg>
