<svg width="46.000000" height="38.000000" viewBox="0 0 46 38" fill="none" xmlns="http://www.w3.org/2000/svg" xmlns:xlink="http://www.w3.org/1999/xlink">
	<desc>
			Created with Pixso.
	</desc>
	<defs/>
	<path id="path" d="M34.5 7.6001C33.6045 7.6001 32.7402 7.73438 31.9248 7.97754C31.9316 7.85083 31.9443 7.72803 31.9443 7.6001C31.9443 3.40356 28.5107 0 24.2773 0C20.7393 0 17.7695 2.37891 16.8857 5.60742C16.0088 5.26172 15.0557 5.06665 14.0557 5.06665C9.82031 5.06665 6.38867 8.46899 6.38867 12.6667C6.38867 16.8618 9.82031 20.2666 14.0557 20.2666C17.5938 20.2666 20.5635 17.8879 21.4473 14.658C22.3242 15.0037 23.2773 15.2 24.2773 15.2C24.7568 15.2 25.2227 15.1506 25.6777 15.0684C25.6035 15.5242 25.5557 15.989 25.5557 16.4666C25.5557 21.3623 29.5615 25.3333 34.5 25.3333C39.4385 25.3333 43.4443 21.3623 43.4443 16.4666C43.4443 11.5698 39.4385 7.6001 34.5 7.6001Z" fill="#CCD6DD" fill-opacity="1.000000" fill-rule="nonzero"/>
	<path id="path" d="M39.6113 25.3335C39.0146 25.3335 38.4482 25.4412 37.9004 25.5918C38.1758 24.9255 38.333 24.1985 38.333 23.4333C38.333 20.2856 35.7588 17.7334 32.583 17.7334C31.2812 17.7334 30.0957 18.178 29.1318 18.8999C28.2295 15.3218 24.9727 12.6667 21.083 12.6667C17.457 12.6667 14.3818 14.9746 13.249 18.1855C12.2939 17.8918 11.2764 17.7334 10.2227 17.7334C4.57715 17.7334 0 22.2705 0 27.8667C0 33.4641 4.57715 38 10.2227 38L39.6113 38C43.1406 38 46 35.1653 46 31.6667C46 28.1682 43.1406 25.3335 39.6113 25.3335Z" fill="#E1E8ED" fill-opacity="1.000000" fill-rule="nonzero"/>
</svg>
